<?xml version="1.0" encoding="UTF-8"?>
<svg id="Layer_1" data-name="Layer 1" xmlns="http://www.w3.org/2000/svg" xmlns:xlink="http://www.w3.org/1999/xlink" viewBox="0 0 2000 2000">
  <defs>
    <linearGradient id="linear-gradient" x1="91.22" y1="989.65" x2="1690.99" y2="1016.85" gradientUnits="userSpaceOnUse">
      <stop offset="0" stop-color="#ec4899"/>
      <stop offset=".02" stop-color="#dd4ba2"/>
      <stop offset=".22" stop-color="#6366f1"/>
      <stop offset=".35" stop-color="#6d63f2"/>
      <stop offset=".55" stop-color="#855ef5"/>
      <stop offset=".6" stop-color="#9c58df"/>
      <stop offset=".72" stop-color="#d94ba9"/>
      <stop offset=".75" stop-color="#ec4899"/>
    </linearGradient>
  </defs>
  <path d="M1199.99,1200.01l-499.99,599.99c-132.97-400-267.03-800-400-1200l400-400v1200l499.98-199.99h-399.98v-400.01l399.99,400.01Z" fill="url(#linear-gradient)"/>
  <g>
    <path d="M914.15,746.47c0,15.04-3.9,27.87-11.71,38.49-7.81,10.62-17.24,15.92-28.31,15.92h-31.35c-12.17,0-21.64-3.93-28.4-11.78-3.94,5.68-8.91,9.61-14.94,11.78v-187.8l30.06-13.54v81.74c2.09-6.18,5.47-11.2,10.14-15.04,4.67-3.84,9.59-5.77,14.75-5.77h19.73c11.06,0,20.5,5.31,28.31,15.92,7.81,10.62,11.71,23.44,11.71,38.49v31.59ZM884.28,746.47v-31.59c0-3.67-.99-6.85-2.95-9.53-1.97-2.67-4.37-4.01-7.19-4.01h-30.98c-3.81,0-7.04,1.67-9.68,5.01-2.65,3.35-3.96,7.86-3.96,13.54v31.59c0,5.85,2.09,8.78,6.27,8.78h38.36c2.83,0,5.22-1.34,7.19-4.01,1.96-2.67,2.95-5.93,2.95-9.78Z" fill="#6366f1"/>
    <path d="M1072.19,800.88c-6.39,0-11.8-4.34-16.23-13.04-3.07,4.18-8.11,7.52-15.12,10.03-5.66,2.01-11.31,3.01-16.96,3.01h-38.91c-9.84,0-17.58-4.43-23.23-13.29-5.16-8.02-7.56-17.63-7.19-28.83.37-11.03,3.2-20.22,8.48-27.58,5.9-8.19,13.77-12.29,23.6-12.29h42.23c3.2,0,6.3,1.09,9.31,3.26,3.01,2.17,4.95,5.1,5.81,8.78l-1.11-13.54c-.86-11.37-5.04-17.05-12.54-17.05h-66.57l3.32-39.87h61.41c12.54,0,22.96,5.35,31.26,16.05,8.3,10.7,12.45,25.16,12.45,43.38v80.99ZM1042.5,750.73c0-4.51-3.44-6.77-10.33-6.77h-38.17c-5.9,0-8.98,3.1-9.22,9.28-.25,6.19,2.27,9.28,7.56,9.28h34.3c3.32,0,6.58-.92,9.77-2.76,4.18-2.17,6.21-5.18,6.09-9.03Z" fill="#6366f1"/>
    <path d="M1237.59,781.57c0,19.89-6.21,36.19-18.62,48.89-11.43,11.53-24.71,16.88-39.83,16.05-3.94-.17-9.84-.5-17.7-1l4.06-34.1c1.96.33,4.98.83,9.04,1.5,11.18,1,20.04-2.01,26.55-9.03,7.01-7.52,10.51-18.72,10.51-33.6-2.95,8.52-7.38,14.84-13.28,18.93-5.9,4.1-13.34,6.14-22.31,6.14h-18.25c-11.06,0-20.5-5.22-28.31-15.67-7.81-10.44-11.71-23.11-11.71-37.99v-26.83c0-15.04,3.9-27.87,11.71-38.49,7.8-10.61,17.24-15.92,28.31-15.92h24.89c5.53,0,10.57,1.84,15.12,5.52,5.16,3.85,8.48,9.11,9.96,15.8v-21.31h29.87v121.1ZM1207.72,731.17v-8.78c0-6.02-1.63-11.03-4.89-15.04-3.26-4.01-7.41-6.02-12.45-6.02h-32.64c-2.71,0-5.04,1.34-7.01,4.01-1.97,2.68-2.95,5.85-2.95,9.53v28.83c0,3.68.98,7.23,2.95,10.66,1.96,3.43,4.3,5.14,7.01,5.14h26c8.23,0,14.44-3.01,18.62-9.03,3.56-5.01,5.35-11.45,5.35-19.31Z" fill="#6366f1"/>
    <path d="M1402.82,746.47c0,15.04-3.9,27.87-11.71,38.49-7.81,10.62-17.24,15.92-28.31,15.92h-39.83c-11.06,0-20.5-5.3-28.31-15.92-7.81-10.61-11.71-23.44-11.71-38.49v-31.59c0-15.04,3.9-27.87,11.71-38.49,7.81-10.61,17.24-15.92,28.31-15.92h39.83c11.06,0,20.5,5.31,28.31,15.92,7.8,10.62,11.71,23.44,11.71,38.49v31.59ZM1372.76,746.47v-31.59c0-3.67-.95-6.85-2.86-9.53-1.91-2.67-4.27-4.01-7.1-4.01h-39.83c-2.83,0-5.2,1.34-7.1,4.01-1.91,2.68-2.86,5.85-2.86,9.53v31.59c0,3.85.95,7.11,2.86,9.78,1.9,2.68,4.27,4.01,7.1,4.01h39.83c2.83,0,5.19-1.34,7.1-4.01,1.91-2.67,2.86-5.93,2.86-9.78Z" fill="#6366f1"/>
    <path d="M1617.46,800.88h-29.87v-86c0-3.67-.99-6.85-2.95-9.53-1.97-2.67-4.37-4.01-7.19-4.01h-16.23c-9.1,0-13.65,6.19-13.65,18.55v80.99h-29.87v-86c0-3.67-.99-6.85-2.95-9.53-1.97-2.67-4.37-4.01-7.19-4.01h-16.23c-9.1,0-13.65,6.19-13.65,18.55v80.99h-29.87v-140.41h29.87v22.57c2.21-8.02,5.35-13.79,9.4-17.3,4.06-3.51,8.11-5.27,12.17-5.27h11.62c6.27,0,11.74,2.09,16.41,6.27,4.67,4.18,8.42,10.95,11.25,20.31,1.6-8.02,4.61-14.29,9.04-18.8,5.04-5.18,11.12-7.77,18.25-7.77h13.46c10.94,0,20.04,5.31,27.29,15.92,7.25,10.62,10.88,23.44,10.88,38.49v86Z" fill="#6366f1"/>
    <path d="M1731.42,660.47l-3.32,40.37c-7.5-6.02-13.83-8.27-18.99-6.77-9.47,3.01-14.2,16.21-14.2,39.62v67.45h-30.06v-140.66h29.69v20.81c3.2-10.86,8.05-17.8,14.57-20.81,3.81-1.84,8.3-2.42,13.46-1.75,2.58.17,5.53.75,8.85,1.75Z" fill="#6366f1"/>
    <path d="M1799.65,631.89h-29.87v-25.57h29.87v25.57ZM1799.65,800.88h-29.87v-140.41h29.87v140.41Z" fill="#6366f1"/>
  </g>
</svg>